<svg width="1440" height="479" viewBox="0 0 1440 479" fill="none" xmlns="http://www.w3.org/2000/svg">
<path d="M113.416 7.23101C-109.084 -56.769 -68.5836 322.231 -341.084 428.731C-613.584 535.231 224.916 951.231 -270.083 1235.73C-765.083 1520.23 1499.41 1053.23 1913.42 1235.73C2327.42 1418.23 2218.42 954.231 2218.42 954.231C2218.42 954.231 2111.92 383.731 1825.42 362.231C1538.92 340.731 1427.92 179.731 1103.42 89.731C778.917 -0.268867 778.917 142.231 617.917 213.231C456.917 284.231 335.916 71.231 113.416 7.23101Z" fill="#39F8F5" fill-opacity="0.5"/>
<path d="M119.416 94.231C-103.084 30.231 -62.5836 409.231 -335.084 515.731C-607.584 622.231 230.916 1038.23 -264.083 1322.73C-759.083 1607.23 1505.41 1140.23 1919.42 1322.73C2333.42 1505.23 2224.42 1041.23 2224.42 1041.23C2224.42 1041.23 2117.92 470.731 1831.42 449.231C1544.92 427.731 1433.92 266.731 1109.42 176.731C784.917 86.7311 784.917 229.231 623.917 300.231C462.917 371.231 341.916 158.231 119.416 94.231Z" fill="#6CEB94" fill-opacity="0.7"/>
</svg>
